<?xml version="1.0" encoding="UTF-8"?>
<svg xmlns="http://www.w3.org/2000/svg" xmlns:xlink="http://www.w3.org/1999/xlink" width="161.25pt" height="50.999998pt" viewBox="0 0 161.25 50.999998" version="1.2">
<defs>
<clipPath id="clip1">
  <path d="M 17 6 L 143.570312 6 L 143.570312 46 L 17 46 Z M 17 6 "/>
</clipPath>
</defs>
<g id="surface1">
<g clip-path="url(#clip1)" clip-rule="nonzero">
<path style=" stroke:none;fill-rule:nonzero;fill:rgb(100%,100%,100%);fill-opacity:1;" d="M 29.945312 6.523438 C 25.820312 6.523438 23.617188 6.800781 22.65625 6.800781 C 21.050781 6.800781 19.628906 6.753906 18.207031 6.753906 C 17.429688 6.753906 17.292969 6.800781 17.292969 7.121094 C 17.292969 7.675781 17.476562 7.722656 19.539062 7.722656 C 20.820312 7.722656 21.554688 8.136719 21.554688 11.773438 L 21.554688 32.957031 C 21.554688 33.648438 21.464844 33.742188 19.402344 33.742188 C 18.390625 33.742188 18.117188 33.832031 18.117188 34.292969 C 18.117188 34.753906 18.4375 34.800781 18.898438 34.800781 C 20.363281 34.800781 21.371094 34.617188 23.296875 34.617188 C 25.316406 34.617188 27.242188 35.074219 29.167969 35.074219 C 35.539062 35.074219 39.804688 32.636719 39.804688 27.476562 C 39.804688 23.472656 37.097656 21.90625 34.941406 20.800781 C 34.027344 20.339844 33.15625 20.109375 33.15625 20.015625 C 33.15625 19.878906 34.164062 19.371094 35.035156 18.773438 C 36.503906 17.761719 38.472656 16.148438 38.472656 12.878906 C 38.472656 9.609375 35.90625 6.523438 29.945312 6.523438 Z M 108.503906 6.574219 C 108.261719 6.574219 106.746094 7.257812 103.636719 7.457031 C 102.960938 7.496094 102.640625 7.457031 102.640625 7.9375 C 102.640625 8.378906 103.039062 8.460938 103.757812 8.460938 C 105.550781 8.460938 105.789062 8.457031 105.789062 10.980469 L 105.789062 33.050781 C 105.789062 33.773438 105.113281 33.734375 103.476562 33.734375 C 102.519531 33.734375 102.480469 33.972656 102.480469 34.253906 C 102.480469 34.574219 102.558594 34.65625 103.476562 34.65625 C 104.035156 34.65625 106.148438 34.574219 107.503906 34.574219 C 108.222656 34.574219 109.101562 34.65625 109.699219 34.65625 C 111.132812 34.65625 111.414062 34.65625 111.414062 34.253906 C 111.414062 33.933594 111.492188 33.695312 109.5 33.695312 C 108.78125 33.695312 108.503906 33.253906 108.503906 29.929688 C 108.503906 28.765625 108.703125 25.601562 108.703125 10.339844 C 108.703125 9.140625 108.902344 7.695312 108.902344 7.214844 C 108.902344 6.777344 108.703125 6.574219 108.503906 6.574219 Z M 75.394531 6.617188 C 75.035156 6.617188 72.683594 7.496094 69.8125 7.496094 C 69.371094 7.496094 69.292969 7.65625 69.292969 8.058594 C 69.292969 8.339844 69.453125 8.460938 71.085938 8.460938 C 72.164062 8.460938 72.484375 8.820312 72.484375 11.664062 C 72.484375 20.113281 72.363281 31.972656 72.363281 33.132812 C 72.363281 33.734375 72.003906 33.734375 70.648438 33.734375 C 69.691406 33.734375 69.492188 33.933594 69.492188 34.253906 C 69.492188 34.613281 69.730469 34.65625 70.648438 34.65625 C 71.207031 34.65625 72.683594 34.574219 74.039062 34.574219 C 75.316406 34.574219 77.148438 34.65625 77.746094 34.65625 C 78.625 34.65625 78.824219 34.65625 78.824219 34.253906 C 78.824219 33.933594 78.664062 33.734375 77.746094 33.734375 C 75.273438 33.734375 75.355469 33.734375 75.355469 31.851562 L 75.355469 29.328125 C 75.355469 28.96875 75.914062 28.6875 76.550781 28.285156 C 77.230469 27.84375 77.785156 27.445312 77.945312 27.445312 C 78.1875 27.445312 79.863281 29.96875 81.535156 31.890625 C 83.210938 33.8125 83.570312 34.816406 84.289062 34.816406 C 84.847656 34.816406 86.042969 34.777344 86.519531 34.777344 C 86.878906 34.777344 87.398438 34.816406 87.875 34.816406 C 88.753906 34.816406 89.03125 34.734375 89.03125 34.457031 C 89.03125 34.132812 88.714844 33.933594 87.757812 33.933594 C 86.402344 33.933594 85.125 31.972656 83.769531 30.328125 C 80.976562 26.964844 80.261719 26.203125 80.261719 25.84375 C 80.261719 25.5625 82.734375 23.800781 84.726562 21.835938 C 85.964844 20.636719 87.320312 18.914062 87.320312 18.554688 C 87.320312 18.433594 87.160156 18.390625 86.839844 18.390625 C 86.363281 18.390625 84.046875 18.511719 83.53125 18.511719 C 83.050781 18.511719 82.292969 18.390625 81.894531 18.390625 C 81.378906 18.390625 81.175781 18.472656 81.175781 18.792969 C 81.175781 19.152344 81.378906 19.234375 81.976562 19.234375 C 83.730469 19.234375 83.847656 19.3125 83.847656 19.953125 C 83.847656 20.796875 83.488281 21.476562 81.933594 22.957031 C 80.660156 24.160156 76.511719 27.84375 75.515625 27.84375 C 75.394531 27.84375 75.355469 27.726562 75.355469 27.566406 C 75.355469 21.035156 75.59375 16.550781 75.59375 10.460938 C 75.59375 9.179688 75.671875 7.496094 75.671875 6.976562 C 75.671875 6.734375 75.59375 6.617188 75.394531 6.617188 Z M 28.570312 7.628906 C 32.742188 7.628906 34.667969 12.050781 34.667969 14.351562 C 34.667969 17.992188 33.15625 18.867188 31.824219 19.878906 C 31.824219 19.878906 29.898438 19.601562 27.101562 19.601562 C 26 19.601562 25.40625 19.695312 25.40625 18.957031 L 25.40625 8.964844 C 25.40625 8.042969 25.542969 7.628906 28.570312 7.628906 Z M 48.675781 17.992188 C 45.046875 17.992188 41.257812 21.355469 41.257812 27.003906 C 41.257812 33.695312 46.125 35.296875 49.394531 35.296875 C 52.625 35.296875 56.011719 32.773438 56.011719 32.570312 C 56.011719 32.492188 55.894531 32.25 55.695312 32.25 C 55.457031 32.25 54.019531 33.214844 51.386719 33.214844 C 48.355469 33.214844 44.089844 31.730469 44.089844 26.203125 C 44.089844 25.28125 44.210938 25.082031 44.847656 25.042969 C 49.394531 24.761719 53.382812 23.878906 54.417969 23.640625 C 55.496094 23.398438 56.054688 23.238281 56.054688 23.078125 C 56.054688 22.757812 55.414062 21.796875 54.738281 20.996094 C 53.300781 19.3125 50.75 17.992188 48.675781 17.992188 Z M 95.175781 17.992188 C 91.546875 17.992188 87.757812 21.355469 87.757812 27.003906 C 87.757812 33.695312 92.621094 35.296875 95.894531 35.296875 C 99.121094 35.296875 102.511719 32.773438 102.511719 32.570312 C 102.511719 32.492188 102.394531 32.25 102.195312 32.25 C 101.953125 32.25 100.519531 33.214844 97.886719 33.214844 C 94.855469 33.214844 90.589844 31.730469 90.589844 26.203125 C 90.589844 25.28125 90.707031 25.082031 91.347656 25.042969 C 95.894531 24.761719 99.878906 23.878906 100.917969 23.640625 C 101.996094 23.398438 102.550781 23.238281 102.550781 23.078125 C 102.550781 22.757812 101.914062 21.796875 101.238281 20.996094 C 99.800781 19.3125 97.25 17.992188 95.175781 17.992188 Z M 118.175781 17.992188 C 114.546875 17.992188 110.757812 21.355469 110.757812 27.003906 C 110.757812 33.695312 115.625 35.296875 118.894531 35.296875 C 122.125 35.296875 125.515625 32.773438 125.515625 32.570312 C 125.515625 32.492188 125.394531 32.25 125.195312 32.25 C 124.957031 32.25 123.519531 33.214844 120.886719 33.214844 C 117.859375 33.214844 113.589844 31.730469 113.589844 26.203125 C 113.589844 25.28125 113.710938 25.082031 114.347656 25.042969 C 118.894531 24.761719 122.882812 23.878906 123.917969 23.640625 C 124.996094 23.398438 125.554688 23.238281 125.554688 23.078125 C 125.554688 22.757812 124.917969 21.796875 124.238281 20.996094 C 122.804688 19.3125 120.25 17.992188 118.175781 17.992188 Z M 62.554688 18.273438 C 61.914062 18.273438 61.15625 18.472656 60.519531 18.472656 C 59.722656 18.472656 58.964844 18.390625 57.609375 18.390625 C 56.929688 18.390625 56.96875 18.511719 56.96875 18.992188 C 56.96875 19.433594 56.96875 19.394531 57.6875 19.394531 C 59.921875 19.394531 59.839844 19.472656 59.839844 22.199219 L 59.839844 33.171875 C 59.839844 33.734375 59.722656 33.773438 58.085938 33.773438 C 57.128906 33.773438 57.089844 33.855469 57.089844 34.253906 C 57.089844 34.65625 57.167969 34.65625 58.085938 34.65625 C 58.644531 34.65625 60 34.453125 61.355469 34.453125 C 62.632812 34.453125 65.304688 34.65625 65.863281 34.65625 C 66.898438 34.65625 66.941406 34.695312 66.941406 34.253906 C 66.941406 33.894531 66.898438 33.773438 65.863281 33.773438 C 62.914062 33.773438 62.792969 33.773438 62.792969 31.8125 L 62.792969 23.558594 C 62.792969 21.875 63.667969 20.914062 65.980469 20.914062 C 67.976562 20.914062 68.457031 22.558594 69.015625 22.558594 C 69.253906 22.558594 69.890625 20.796875 69.890625 20.394531 C 69.890625 19.355469 68.054688 18.472656 67.335938 18.472656 C 65.464844 18.472656 63.589844 20.554688 62.992188 20.554688 C 62.832031 20.554688 62.792969 20.273438 62.792969 19.914062 C 62.792969 19.792969 62.871094 18.914062 62.871094 18.710938 C 62.871094 18.390625 62.710938 18.273438 62.554688 18.273438 Z M 142.179688 18.3125 C 141.621094 18.3125 140.542969 18.472656 139.945312 18.472656 C 138.871094 18.472656 138.152344 18.390625 137.074219 18.390625 C 136.359375 18.390625 136.238281 18.390625 136.238281 18.914062 C 136.238281 19.3125 136.398438 19.3125 137.632812 19.3125 C 138.988281 19.3125 138.988281 19.554688 138.988281 20.753906 C 138.988281 21.316406 137.554688 25.484375 136.597656 28.367188 C 135.957031 30.25 135.71875 30.808594 135.441406 30.808594 C 135.28125 30.808594 134.800781 30.128906 134.480469 29.289062 C 132.089844 23.117188 131.054688 21.714844 131.054688 20.554688 C 131.054688 19.632812 131.292969 19.394531 132.25 19.394531 C 133.085938 19.394531 133.246094 19.355469 133.246094 18.992188 C 133.246094 18.550781 133.085938 18.390625 132.25 18.390625 C 130.972656 18.390625 129.578125 18.511719 128.460938 18.511719 C 127.503906 18.511719 127.226562 18.433594 126.109375 18.433594 C 125.390625 18.433594 125.273438 18.632812 125.273438 18.992188 C 125.273438 19.355469 125.3125 19.394531 126.109375 19.394531 C 126.828125 19.394531 127.105469 19.59375 128.101562 21.996094 C 130.296875 27.203125 133.484375 34.613281 133.484375 35.054688 C 133.484375 36.257812 130.058594 40.984375 128.621094 42.785156 C 127.265625 44.507812 125.390625 44.75 125.390625 44.988281 C 125.390625 45.1875 125.789062 45.390625 126.46875 45.390625 C 127.34375 45.390625 127.625 45.070312 128.820312 44.910156 C 129.699219 44.789062 130.175781 44.75 130.613281 43.867188 C 131.890625 41.222656 133.6875 37.980469 136.199219 31.851562 C 139.347656 24.160156 141.101562 19.351562 141.980469 19.351562 C 142.460938 19.351562 143.015625 19.152344 143.015625 18.792969 C 143.015625 18.351562 142.816406 18.3125 142.179688 18.3125 Z M 48.277344 18.832031 C 50.113281 18.832031 52.464844 21.796875 52.464844 22.796875 C 52.464844 23.039062 52.425781 23.117188 51.984375 23.199219 C 48.996094 23.679688 46.839844 24.199219 44.769531 24.199219 C 44.289062 24.199219 44.289062 24.160156 44.289062 23.960938 C 44.289062 23.398438 45.246094 18.832031 48.277344 18.832031 Z M 94.777344 18.832031 C 96.609375 18.832031 98.964844 21.796875 98.964844 22.796875 C 98.964844 23.039062 98.921875 23.117188 98.484375 23.199219 C 95.492188 23.679688 93.339844 24.199219 91.265625 24.199219 C 90.789062 24.199219 90.789062 24.160156 90.789062 23.960938 C 90.789062 23.398438 91.746094 18.832031 94.777344 18.832031 Z M 117.777344 18.832031 C 119.613281 18.832031 121.964844 21.796875 121.964844 22.796875 C 121.964844 23.039062 121.925781 23.117188 121.484375 23.199219 C 118.496094 23.679688 116.34375 24.199219 114.269531 24.199219 C 113.789062 24.199219 113.789062 24.160156 113.789062 23.960938 C 113.789062 23.398438 114.746094 18.832031 117.777344 18.832031 Z M 27.058594 20.476562 C 32.058594 20.476562 35.449219 23.699219 35.449219 27.84375 C 35.449219 31.851562 32.882812 34.246094 29.398438 34.246094 C 27.929688 34.246094 26.464844 33.925781 25.960938 33.371094 C 25.546875 32.910156 25.410156 30.332031 25.410156 29.917969 L 25.410156 21.671875 C 25.410156 20.660156 25.777344 20.476562 27.058594 20.476562 Z M 49.796875 39.277344 C 48.851562 39.277344 48.066406 39.847656 48.066406 40.792969 C 48.066406 42.589844 50.425781 42.269531 50.425781 43.269531 C 50.425781 43.667969 50.121094 44.011719 49.507812 44.011719 C 49.09375 44.011719 48.574219 43.816406 48.136719 43.519531 L 47.75 44.210938 C 48.183594 44.511719 48.777344 44.804688 49.507812 44.804688 C 50.527344 44.804688 51.375 44.144531 51.375 43.238281 C 51.375 41.417969 49.015625 41.964844 49.015625 40.753906 C 49.015625 40.355469 49.28125 40.066406 49.796875 40.066406 C 50.253906 40.066406 50.613281 40.222656 51.007812 40.425781 L 51.34375 39.753906 C 50.894531 39.472656 50.355469 39.277344 49.796875 39.277344 Z M 68.59375 39.277344 C 66.992188 39.277344 66.277344 40.425781 66.277344 42.035156 C 66.277344 43.566406 66.984375 44.804688 68.59375 44.804688 C 70.207031 44.804688 70.914062 43.566406 70.914062 42.035156 C 70.914062 40.425781 70.199219 39.277344 68.59375 39.277344 Z M 81.089844 39.277344 C 79.488281 39.277344 78.703125 40.433594 78.703125 42.042969 C 78.703125 43.683594 79.417969 44.804688 81.058594 44.804688 C 81.777344 44.804688 82.445312 44.503906 82.988281 44.003906 L 82.515625 43.394531 C 82.078125 43.796875 81.582031 44.011719 81.105469 44.011719 C 80.117188 44.011719 79.652344 43.300781 79.652344 42.035156 C 79.652344 40.777344 80.148438 40.066406 81.089844 40.066406 C 81.597656 40.066406 81.972656 40.246094 82.382812 40.589844 L 82.867188 39.964844 C 82.304688 39.503906 81.753906 39.277344 81.089844 39.277344 Z M 101.351562 39.277344 C 99.75 39.277344 99.035156 40.425781 99.035156 42.035156 C 99.035156 43.566406 99.742188 44.804688 101.351562 44.804688 C 102.964844 44.804688 103.671875 43.566406 103.671875 42.035156 C 103.671875 40.425781 102.957031 39.277344 101.351562 39.277344 Z M 26.882812 39.355469 L 25.984375 39.449219 L 25.984375 44.71875 L 26.914062 44.71875 L 26.914062 41.121094 L 26.929688 41.121094 L 29.175781 44.71875 L 30.003906 44.71875 L 30.003906 39.363281 L 29.074219 39.363281 L 29.074219 42.878906 L 29.054688 42.878906 Z M 38.761719 39.355469 L 38.761719 44.71875 L 42 44.71875 L 42.070312 43.925781 L 39.6875 43.925781 L 39.6875 42.410156 L 41.6875 42.410156 L 41.6875 41.621094 L 39.6875 41.621094 L 39.6875 40.144531 L 41.9375 40.144531 L 41.9375 39.355469 Z M 72.105469 39.355469 L 72.105469 44.71875 L 73.03125 44.71875 L 73.03125 42.410156 L 74.992188 42.410156 L 74.992188 41.621094 L 73.03125 41.621094 L 73.03125 40.144531 L 75.21875 40.144531 L 75.21875 39.355469 Z M 86.421875 39.355469 L 85.339844 39.441406 L 83.464844 44.71875 L 84.328125 44.71875 L 84.773438 43.425781 L 86.921875 43.425781 L 87.363281 44.71875 L 88.316406 44.71875 Z M 95.324219 39.355469 L 95.324219 44.71875 L 96.25 44.71875 L 96.25 42.410156 L 98.210938 42.410156 L 98.210938 41.621094 L 96.25 41.621094 L 96.25 40.144531 L 98.4375 40.144531 L 98.4375 39.355469 Z M 109.90625 39.355469 L 109.011719 39.449219 L 109.011719 44.71875 L 109.9375 44.71875 L 109.9375 41.121094 L 109.953125 41.121094 L 112.203125 44.71875 L 113.027344 44.71875 L 113.027344 39.363281 L 112.101562 39.363281 L 112.101562 42.878906 L 112.078125 42.878906 Z M 118.832031 39.355469 L 117.75 39.441406 L 115.875 44.71875 L 116.738281 44.71875 L 117.179688 43.425781 L 119.328125 43.425781 L 119.773438 44.71875 L 120.722656 44.71875 Z M 20.753906 39.363281 L 20.753906 42.855469 C 20.753906 44.058594 21.414062 44.804688 22.722656 44.804688 C 24.023438 44.804688 24.683594 44.058594 24.683594 42.847656 L 24.683594 39.363281 L 23.757812 39.363281 L 23.757812 42.910156 C 23.757812 43.574219 23.480469 44.011719 22.722656 44.011719 C 21.960938 44.011719 21.679688 43.574219 21.679688 42.902344 L 21.679688 39.363281 Z M 31.320312 39.363281 L 31.320312 44.71875 L 32.246094 44.71875 L 32.246094 39.363281 Z M 33.15625 39.363281 L 34.992188 44.71875 L 36.011719 44.71875 L 37.859375 39.363281 L 36.945312 39.363281 L 35.929688 42.355469 C 35.929688 42.355469 35.828125 42.660156 35.5625 43.574219 L 35.515625 43.574219 C 35.257812 42.660156 35.15625 42.347656 35.15625 42.347656 L 34.136719 39.363281 Z M 43.296875 39.363281 L 43.296875 44.71875 L 44.222656 44.71875 L 44.222656 42.574219 L 44.664062 42.574219 C 45 42.574219 45.195312 42.886719 45.351562 43.207031 L 46.089844 44.71875 L 47.109375 44.71875 L 46.089844 42.785156 C 46.027344 42.660156 45.933594 42.519531 45.761719 42.417969 L 45.761719 42.402344 C 46.464844 42.136719 46.765625 41.589844 46.765625 40.949219 C 46.765625 40.019531 46.183594 39.363281 45.007812 39.363281 Z M 52.476562 39.363281 L 52.476562 44.71875 L 53.402344 44.71875 L 53.402344 39.363281 Z M 54.46875 39.363281 L 54.46875 40.160156 L 55.878906 40.160156 L 55.878906 44.71875 L 56.804688 44.71875 L 56.804688 40.152344 L 58.152344 40.152344 L 58.222656 39.363281 Z M 58.828125 39.363281 L 60.507812 42.425781 L 60.507812 44.71875 L 61.433594 44.71875 L 61.433594 42.425781 L 63.117188 39.363281 L 62.09375 39.363281 L 61.339844 40.886719 C 61.339844 40.886719 61.246094 41.082031 60.984375 41.675781 L 60.960938 41.675781 C 60.679688 41.082031 60.578125 40.886719 60.578125 40.886719 L 59.871094 39.363281 Z M 89.066406 39.363281 L 89.066406 44.71875 L 92.21875 44.71875 L 92.289062 43.925781 L 89.992188 43.925781 L 89.992188 39.363281 Z M 93.1875 39.363281 L 93.1875 44.71875 L 94.113281 44.71875 L 94.113281 39.363281 Z M 104.472656 39.363281 L 104.472656 44.71875 L 105.398438 44.71875 L 105.398438 42.574219 L 105.839844 42.574219 C 106.175781 42.574219 106.371094 42.886719 106.527344 43.207031 L 107.265625 44.71875 L 108.285156 44.71875 L 107.265625 42.785156 C 107.203125 42.660156 107.109375 42.519531 106.9375 42.417969 L 106.9375 42.402344 C 107.640625 42.136719 107.941406 41.589844 107.941406 40.949219 C 107.941406 40.019531 107.359375 39.363281 106.183594 39.363281 Z M 114.191406 39.363281 L 114.191406 44.71875 L 115.117188 44.71875 L 115.117188 39.363281 Z M 68.59375 40.066406 C 69.511719 40.066406 69.953125 40.871094 69.953125 42.035156 C 69.953125 43.199219 69.503906 44.011719 68.59375 44.011719 C 67.675781 44.011719 67.222656 43.199219 67.222656 42.027344 C 67.222656 40.863281 67.675781 40.066406 68.59375 40.066406 Z M 101.351562 40.066406 C 102.269531 40.066406 102.714844 40.871094 102.714844 42.035156 C 102.714844 43.199219 102.261719 44.011719 101.351562 44.011719 C 100.433594 44.011719 99.980469 43.199219 99.980469 42.027344 C 99.980469 40.863281 100.433594 40.066406 101.351562 40.066406 Z M 44.222656 40.160156 L 44.984375 40.160156 C 45.617188 40.160156 45.816406 40.457031 45.816406 40.957031 C 45.816406 41.464844 45.5625 41.792969 45 41.792969 L 44.222656 41.792969 Z M 105.398438 40.160156 L 106.160156 40.160156 C 106.789062 40.160156 106.992188 40.457031 106.992188 40.957031 C 106.992188 41.464844 106.734375 41.792969 106.175781 41.792969 L 105.398438 41.792969 Z M 85.828125 40.300781 L 85.84375 40.300781 C 86.210938 41.410156 86.269531 41.582031 86.269531 41.582031 L 86.683594 42.761719 L 84.996094 42.761719 L 85.40625 41.582031 C 85.40625 41.582031 85.46875 41.410156 85.828125 40.300781 Z M 118.234375 40.300781 L 118.25 40.300781 C 118.617188 41.410156 118.679688 41.582031 118.679688 41.582031 L 119.09375 42.761719 L 117.402344 42.761719 L 117.816406 41.582031 C 117.816406 41.582031 117.878906 41.410156 118.234375 40.300781 Z M 118.234375 40.300781 "/>
</g>
</g>
</svg>
